<svg xmlns:mydata="http://www.w3.org/2000/svg" mydata:contrastcolor="9B26B6" mydata:template="Contrast" mydata:presentation="2.5" mydata:layouttype="undefined" mydata:specialfontid="undefined" mydata:id1="599" mydata:id2="265" mydata:companyname="LaCafe" mydata:companytagline="come y vive sano" version="1.1" xmlns="http://www.w3.org/2000/svg" xmlns:xlink="http://www.w3.org/1999/xlink" viewBox="0 30 550 410"><g fill="#101820" fill-rule="none" stroke="none" stroke-width="1" stroke-linecap="butt" stroke-linejoin="miter" stroke-miterlimit="10" stroke-dasharray="" stroke-dashoffset="0" font-family="none" font-weight="none" font-size="none" text-anchor="none" style="mix-blend-mode: normal"><g data-paper-data="{&quot;isGlobalGroup&quot;:true,&quot;bounds&quot;:{&quot;x&quot;:143.6308450838146,&quot;y&quot;:115,&quot;width&quot;:262.7383098323709,&quot;height&quot;:240}}"><g data-paper-data="{&quot;isSecondaryText&quot;:true}" fill-rule="nonzero"><path d="M149.97443,350.49011c-3.49393,0 -6.34358,-2.84966 -6.34358,-6.34358c0,-3.49393 2.84966,-6.34358 6.34358,-6.34358c1.41244,0 2.75054,0.44603 3.86562,1.31332c0.69383,0.54515 0.84251,1.53634 0.29736,2.25495c-0.54515,0.69383 -1.56112,0.81773 -2.25495,0.29736c-0.54515,-0.44603 -1.2142,-0.66905 -1.90803,-0.66905c-1.73457,0 -3.14701,1.41244 -3.14701,3.14701c0,1.73457 1.41244,3.14701 3.14701,3.14701c0.69383,0 1.36288,-0.22302 1.90803,-0.64427c0.69383,-0.54515 1.70979,-0.42125 2.23017,0.29736c0.54515,0.69383 0.42125,1.70979 -0.29736,2.23017c-1.11508,0.86729 -2.4284,1.31332 -3.84084,1.31332z" data-paper-data="{&quot;glyphName&quot;:&quot;c&quot;,&quot;glyphIndex&quot;:0,&quot;firstGlyphOfWord&quot;:true,&quot;word&quot;:1}"></path><path d="M167.32842,337.80294c-3.49393,0 -6.34358,2.84966 -6.34358,6.34358c0,3.49393 2.84966,6.34358 6.34358,6.34358c3.49393,0 6.34358,-2.84966 6.34358,-6.34358c0,-3.49393 -2.84966,-6.34358 -6.34358,-6.34358zM167.32842,340.99951c1.73457,0 3.14701,1.41244 3.14701,3.14701c0,1.73457 -1.41244,3.14701 -3.14701,3.14701c-1.73457,0 -3.14701,-1.41244 -3.14701,-3.14701c0,-1.73457 1.41244,-3.14701 3.14701,-3.14701z" data-paper-data="{&quot;glyphName&quot;:&quot;o&quot;,&quot;glyphIndex&quot;:1,&quot;word&quot;:1}"></path><path d="M193.55352,337.77816c-1.462,0 -2.8001,0.59471 -3.79128,1.56112c-0.96641,-0.96641 -2.3045,-1.56112 -3.79128,-1.56112c-0.99118,0 -1.90803,0.27258 -2.70098,0.71861c-0.27258,-0.34691 -0.71861,-0.59471 -1.18942,-0.59471c-0.84251,0 -1.51156,0.66905 -1.51156,1.51156v9.29236c0,0.86729 0.71861,1.5859 1.61068,1.5859c0.86729,0 1.5859,-0.71861 1.5859,-1.5859v-5.52586c0,-1.2142 0.99118,-2.20539 2.20539,-2.20539c1.2142,0 2.20539,0.99118 2.20539,2.20539v5.52586c0,0.86729 0.69383,1.5859 1.5859,1.5859c0.89207,0 1.61068,-0.71861 1.61068,-1.5859v-5.52586c0,-1.2142 0.96641,-2.20539 2.18061,-2.20539c1.2142,0 2.20539,0.99118 2.20539,2.20539v5.52586c0,0.86729 0.71861,1.5859 1.61068,1.5859c0.86729,0 1.5859,-0.71861 1.5859,-1.5859v-5.52586c0,-2.97355 -2.4284,-5.40196 -5.40196,-5.40196z" data-paper-data="{&quot;glyphName&quot;:&quot;m&quot;,&quot;glyphIndex&quot;:2,&quot;word&quot;:1}"></path><path d="M215.49174,345.03859c0.91685,0 1.75935,0.04956 2.27973,-0.69383c0.54515,-0.96641 0.07434,-2.40362 -0.64427,-3.59304c-1.18942,-1.83369 -3.12223,-2.94877 -5.27806,-2.94877c-4.60901,0 -7.63212,4.90636 -5.64975,8.94544c1.70979,3.66738 6.64094,4.90636 10.23398,2.50274c0.64427,-0.42125 0.79295,-1.3381 0.34691,-2.00715c-0.44603,-0.69383 -1.3381,-0.89207 -2.00715,-0.39647c-2.20539,1.41244 -5.4763,0.54515 -6.12057,-1.80891zM208.70213,342.75887c0.29736,-1.31332 1.5859,-2.25495 3.14701,-2.25495c1.53634,0 2.82488,0.94163 3.09745,2.25495z" data-paper-data="{&quot;glyphName&quot;:&quot;e&quot;,&quot;glyphIndex&quot;:3,&quot;lastGlyphOfWord&quot;:true,&quot;word&quot;:1}"></path><path d="M247.39963,337.9764c-0.79295,-0.34691 -1.73457,0.04956 -2.08149,0.89207l-2.45318,6.02145l-2.47796,-6.02145c-0.34691,-0.84251 -1.26376,-1.23898 -2.05671,-0.89207c-0.84251,0.34691 -1.23898,1.28854 -0.89207,2.08149l3.69216,9.01978l-0.34691,0.74339c-0.49559,1.23898 -1.66023,1.98237 -2.99833,1.98237c-0.89207,0 -1.63545,0.66905 -1.63545,1.56112c0,0.89207 0.69383,1.63545 1.5859,1.63545c2.70098,0 5.05504,-1.51156 6.02145,-3.8904l4.53467,-11.05171c0.34691,-0.79295 -0.04956,-1.73457 -0.89207,-2.08149z" data-paper-data="{&quot;glyphName&quot;:&quot;y&quot;,&quot;glyphIndex&quot;:4,&quot;firstGlyphOfWord&quot;:true,&quot;lastGlyphOfWord&quot;:true,&quot;word&quot;:2}"></path><path d="M272.29489,350.29187c-0.64427,0 -1.23898,-0.39647 -1.48678,-0.99118l-3.7665,-9.21802c-0.34691,-0.81773 0.04956,-1.73457 0.86729,-2.08149c0.84251,-0.34691 1.75935,0.04956 2.08149,0.86729l2.3045,5.60019l2.3045,-5.60019c0.32214,-0.81773 1.23898,-1.2142 2.08149,-0.86729c0.81773,0.34691 1.2142,1.26376 0.86729,2.08149l-3.7665,9.21802c-0.2478,0.59471 -0.84251,0.99118 -1.48678,0.99118z" data-paper-data="{&quot;glyphName&quot;:&quot;v&quot;,&quot;glyphIndex&quot;:5,&quot;firstGlyphOfWord&quot;:true,&quot;word&quot;:3}"></path><path d="M287.34438,335.22586c0,0.76817 -0.64427,1.41244 -1.41244,1.41244c-0.76817,0 -1.41244,-0.64427 -1.41244,-1.41244c0,-0.79295 0.64427,-1.41244 1.41244,-1.41244c0.76817,0 1.41244,0.61949 1.41244,1.41244zM285.95672,350.29187c-0.91685,0 -1.63545,-0.71861 -1.63545,-1.61068v-9.31714c0,-0.89207 0.71861,-1.61068 1.63545,-1.61068c0.89207,0 1.61068,0.71861 1.61068,1.61068v9.31714c0,0.89207 -0.71861,1.61068 -1.61068,1.61068z" data-paper-data="{&quot;glyphName&quot;:&quot;i&quot;,&quot;glyphIndex&quot;:6,&quot;word&quot;:3}"></path><path d="M299.59377,350.29187c-0.64427,0 -1.23898,-0.39647 -1.48678,-0.99118l-3.7665,-9.21802c-0.34691,-0.81773 0.04956,-1.73457 0.86729,-2.08149c0.84251,-0.34691 1.75935,0.04956 2.08149,0.86729l2.3045,5.60019l2.3045,-5.60019c0.32214,-0.81773 1.23898,-1.2142 2.08149,-0.86729c0.81773,0.34691 1.2142,1.26376 0.86729,2.08149l-3.7665,9.21802c-0.2478,0.59471 -0.84251,0.99118 -1.48678,0.99118z" data-paper-data="{&quot;glyphName&quot;:&quot;v&quot;,&quot;glyphIndex&quot;:7,&quot;word&quot;:3}"></path><path d="M321.25942,345.03859c0.91685,0 1.75935,0.04956 2.27973,-0.69383c0.54515,-0.96641 0.07434,-2.40362 -0.64427,-3.59304c-1.18942,-1.83369 -3.12223,-2.94877 -5.27806,-2.94877c-4.60901,0 -7.63212,4.90636 -5.64975,8.94544c1.70979,3.66738 6.64094,4.90636 10.23398,2.50274c0.64427,-0.42125 0.79295,-1.3381 0.34691,-2.00715c-0.44603,-0.69383 -1.3381,-0.89207 -2.00715,-0.39647c-2.20539,1.41244 -5.4763,0.54515 -6.12057,-1.80891zM314.4698,342.75887c0.29736,-1.31332 1.5859,-2.25495 3.14701,-2.25495c1.53634,0 2.82488,0.94163 3.09745,2.25495z" data-paper-data="{&quot;glyphName&quot;:&quot;e&quot;,&quot;glyphIndex&quot;:8,&quot;lastGlyphOfWord&quot;:true,&quot;word&quot;:3}"></path><path d="M347.19542,340.7765c-0.59471,-0.09912 -1.11508,-0.2478 -1.66023,0.07434c-0.44603,0.2478 -0.49559,0.89207 -0.04956,1.18942c0.39647,0.2478 0.64427,0.27258 1.04074,0.34691c1.53634,0.32214 2.75054,1.41244 3.14701,2.924c0.39647,1.53634 -0.14868,3.22135 -1.38766,4.21254c-1.13986,0.94163 -2.82488,1.13986 -4.28687,0.79295c-0.59471,-0.14868 -1.36288,-0.44603 -1.75935,-0.94163c-0.39647,-0.49559 -0.42125,-1.36288 -0.07434,-1.85847c0.56993,-0.91685 1.5859,-0.74339 2.50274,-0.44603c0.59471,0.19824 1.5859,0.27258 1.83369,-0.42125c0.2478,-0.66905 -0.27258,-1.16464 -1.43722,-1.48678c-1.36288,-0.37169 -2.72576,-1.5859 -2.94877,-3.14701c-0.39647,-2.70098 2.57708,-4.83203 5.52586,-4.03908c0.44603,0.1239 0.94163,0.34691 1.26376,0.66905c0.42125,0.39647 0.59471,0.96641 0.2478,1.61068c-0.44603,0.76817 -1.23898,0.64427 -1.95759,0.52037z" data-paper-data="{&quot;glyphName&quot;:&quot;s&quot;,&quot;glyphIndex&quot;:9,&quot;firstGlyphOfWord&quot;:true,&quot;word&quot;:4}"></path><path d="M367.57253,337.90206c-0.61949,0 -1.16464,0.37169 -1.38766,0.91685c-0.99118,-0.64427 -2.18061,-1.01596 -3.44437,-1.01596c-3.49393,0 -6.29402,2.84966 -6.29402,6.3188c0,3.49393 2.8001,6.34358 6.29402,6.34358c1.28854,0 2.47796,-0.37169 3.46915,-1.04074c0.2478,0.52037 0.76817,0.86729 1.36288,0.86729c0.84251,0 1.53634,-0.66905 1.53634,-1.48678v-9.41626c0,-0.81773 -0.69383,-1.48678 -1.53634,-1.48678zM362.79006,347.26876c-1.73457,0 -3.14701,-1.41244 -3.14701,-3.14701c0,-1.70979 1.41244,-3.12223 3.14701,-3.12223c1.73457,0 3.14701,1.41244 3.14701,3.12223c0,1.73457 -1.41244,3.14701 -3.14701,3.14701z" data-paper-data="{&quot;glyphName&quot;:&quot;a&quot;,&quot;glyphIndex&quot;:10,&quot;word&quot;:4}"></path><path d="M381.65561,337.77816c-0.99118,0 -1.90803,0.27258 -2.70098,0.71861c-0.27258,-0.34691 -0.71861,-0.59471 -1.18942,-0.59471c-0.84251,0 -1.51156,0.66905 -1.51156,1.51156v9.29236c0,0.86729 0.71861,1.5859 1.61068,1.5859c0.86729,0 1.5859,-0.71861 1.5859,-1.5859v-5.52586c0,-1.2142 0.99118,-2.20539 2.20539,-2.20539c1.2142,0 2.20539,0.99118 2.20539,2.20539v5.52586c0,0.86729 0.69383,1.5859 1.5859,1.5859c0.89207,0 1.5859,-0.71861 1.5859,-1.5859v-5.52586c0,-2.97355 -2.40362,-5.40196 -5.37718,-5.40196z" data-paper-data="{&quot;glyphName&quot;:&quot;n&quot;,&quot;glyphIndex&quot;:11,&quot;word&quot;:4}"></path><path d="M400.02557,337.80294c-3.49393,0 -6.34358,2.84966 -6.34358,6.34358c0,3.49393 2.84966,6.34358 6.34358,6.34358c3.49393,0 6.34358,-2.84966 6.34358,-6.34358c0,-3.49393 -2.84966,-6.34358 -6.34358,-6.34358zM400.02557,340.99951c1.73457,0 3.14701,1.41244 3.14701,3.14701c0,1.73457 -1.41244,3.14701 -3.14701,3.14701c-1.73457,0 -3.14701,-1.41244 -3.14701,-3.14701c0,-1.73457 1.41244,-3.14701 3.14701,-3.14701z" data-paper-data="{&quot;glyphName&quot;:&quot;o&quot;,&quot;glyphIndex&quot;:12,&quot;lastGlyphOfWord&quot;:true,&quot;word&quot;:4}"></path></g><g data-paper-data="{&quot;isPrimaryText&quot;:true}" fill-rule="nonzero"><path d="M158.65942,278.89768c0,0 0,-6.05629 4.03753,-6.05629v-1.49538h-19.0661v1.49538c4.03753,0 4.03753,6.05629 4.03753,6.05629v37.60881c-0.07477,1.34584 -0.59815,5.68244 -4.03753,5.68244v1.49538h36.93589l1.79446,-11.29012h-1.49538c0,2.31784 -1.86923,8.37413 -9.27136,8.37413h-12.93504z" data-paper-data="{&quot;glyphName&quot;:&quot;L&quot;,&quot;glyphIndex&quot;:0,&quot;firstGlyphOfWord&quot;:true,&quot;word&quot;:1}"></path><path d="M228.71798,316.95511l-14.65473,-45.6091h-11.73873v1.49538c0.74769,0 1.42061,0.972 2.01876,2.1683c-3.1403,9.94428 -9.94428,31.25345 -13.45842,42.09495c-0.89723,2.31784 -2.61692,5.08429 -5.90675,5.08429v1.49538h11.14058v-1.49538c0,0 -3.81322,0 -2.76645,-4.3366l1.04677,-3.36461h22.58024l0.82246,2.84122c0.44861,1.79446 0.89723,4.85999 -1.86923,4.85999v1.49538h17.86979v-1.49538c0,0 -3.43937,0 -5.08429,-5.23383zM195.22146,311.57174c2.09353,-6.72921 5.08429,-16.15011 10.46766,-32.67406c0,0.44861 2.69168,8.97228 10.16859,32.67406z" data-paper-data="{&quot;glyphName&quot;:&quot;A&quot;,&quot;glyphIndex&quot;:1,&quot;word&quot;:1}"></path><path d="M262.06496,280.01922c0,2.39261 1.94399,4.3366 4.3366,4.3366c2.39261,0 4.3366,-1.94399 4.3366,-4.3366c0,-0.972 -0.29908,-1.79446 -0.82246,-2.54215c-2.54215,-4.18706 -8.29936,-6.65444 -14.43042,-6.65444c-30.95437,0 -30.95437,53.086 0,53.086c3.58891,0 6.87875,-1.04677 10.24335,-3.28984c3.28984,-1.34584 3.58891,2.09353 3.58891,2.09353h1.49538v-12.63596h-1.49538c0,2.31784 -0.22431,5.00952 -5.83198,9.04705c-11.21535,6.80398 -20.41194,-3.58891 -20.48671,-21.01009c-0.07477,-14.57996 6.05629,-24.29993 14.9538,-24.29993c1.57015,0 2.99076,0.29908 4.3366,0.89723c4.03753,1.79446 -0.22431,1.79446 -0.22431,5.3086z" data-paper-data="{&quot;glyphName&quot;:&quot;C&quot;,&quot;glyphIndex&quot;:2,&quot;word&quot;:1}"></path><path d="M318.73987,316.95511l-14.65473,-45.6091h-11.73873v1.49538c0.74769,0 1.42061,0.972 2.01876,2.1683c-3.1403,9.94428 -9.94428,31.25345 -13.45842,42.09495c-0.89723,2.31784 -2.61692,5.08429 -5.90675,5.08429v1.49538h11.14058v-1.49538c0,0 -3.81322,0 -2.76645,-4.3366l1.04677,-3.36461h22.58024l0.82246,2.84122c0.44861,1.79446 0.89723,4.85999 -1.86923,4.85999v1.49538h17.86979v-1.49538c0,0 -3.43937,0 -5.08429,-5.23383zM285.24335,311.57174c2.09353,-6.72921 5.08429,-16.15011 10.46766,-32.67406c0,0.44861 2.69168,8.97228 10.16859,32.67406z" data-paper-data="{&quot;glyphName&quot;:&quot;A&quot;,&quot;glyphIndex&quot;:3,&quot;word&quot;:1}"></path><path d="M332.49737,316.13265c0,0 0,6.05629 -4.03753,6.05629v1.49538h19.0661v-1.49538c-3.51414,0 -3.96276,-4.48614 -4.03753,-5.68244v-20.11286h8.4489c3.21507,0 5.60768,0.67292 5.60768,4.26183h1.49538v-11.5892h-1.49538c0,0 -0.07477,4.41137 -4.93475,4.41137h-9.12182v-19.21564h11.06581c6.87875,0.22431 6.95352,3.88799 6.95352,6.13106h1.49538v-9.04705h-34.54328v1.49538c3.51414,0 3.96276,4.48614 4.03753,5.68244z" data-paper-data="{&quot;glyphName&quot;:&quot;F&quot;,&quot;glyphIndex&quot;:4,&quot;word&quot;:1}"></path><path d="M393.20981,274.26201c7.40213,0 7.4769,3.81322 7.4769,6.13106h1.49538v-9.04705h-34.54328v1.49538c3.51414,0 3.96276,4.48614 4.03753,5.68244v37.60881c0,0 0,6.05629 -4.03753,6.05629v1.49538h36.93589l1.79446,-11.29012h-1.49538c0,2.24307 -1.79446,8.07505 -8.74797,8.37413h-13.45842v-21.01009h8.4489c3.21507,0 5.60768,0.67292 5.60768,4.26183h1.49538v-11.5892h-1.49538c0,0 -0.07477,4.41137 -4.93475,4.41137h-9.12182v-22.58024z" data-paper-data="{&quot;glyphName&quot;:&quot;E&quot;,&quot;glyphIndex&quot;:5,&quot;lastGlyphOfWord&quot;:true,&quot;word&quot;:1}"></path></g><g data-paper-data="{&quot;isIcon&quot;:&quot;true&quot;,&quot;iconType&quot;:&quot;icon&quot;,&quot;rawIconId&quot;:&quot;xnqMgsZ-C1K4XQEj2HxLWoMMYmWSFB72XNa62rYgXA&quot;,&quot;source&quot;:&quot;ai&quot;,&quot;selectedEffects&quot;:{&quot;container&quot;:&quot;&quot;,&quot;transformation&quot;:&quot;&quot;,&quot;pattern&quot;:&quot;&quot;},&quot;isDetailed&quot;:false,&quot;iconStyle&quot;:&quot;standalone&quot;,&quot;bounds&quot;:{&quot;x&quot;:207.61638277051995,&quot;y&quot;:115,&quot;width&quot;:134.76723445896013,&quot;height&quot;:128.5736794613818},&quot;fillRule&quot;:&quot;evenodd&quot;,&quot;suitableAsStandaloneIcon&quot;:true}" fill-rule="evenodd"><path d="M275.35587,117.95873c-0.38772,-0.82905 -1.00944,-1.83398 -1.38163,-2.23318l-0.67673,-0.72555l0.87941,0.16204c1.58273,0.29218 3.90535,1.61742 5.13142,2.92808c1.58878,1.69857 2.40975,3.5569 2.58295,5.84737c0.249,3.29614 -0.5825,5.79989 -3.36339,10.12657c-2.32131,3.61142 -2.9704,4.99318 -3.35233,7.1334c-0.46669,2.61501 0.10634,5.36563 1.55693,7.474l0.73437,1.06788l-1.20527,-0.00263c-1.7375,-0.00342 -3.47394,-0.90468 -5.03587,-2.61349c-1.80725,-1.97755 -2.44239,-4.01696 -2.26499,-7.27209c0.16241,-2.97707 1.07788,-5.3645 3.4821,-9.07968c0.98365,-1.51995 2.19997,-3.61145 2.70324,-4.64776c0.85598,-1.76287 0.91494,-2.03798 0.91494,-4.27091c0,-2.08973 -0.08765,-2.57411 -0.70516,-3.89407zM261.11765,123.4888c-0.14056,-0.08718 -0.25585,-0.25551 -0.25585,-0.37432c0,-0.3241 1.74118,0.20702 2.93066,0.89386c4.54418,2.62386 5.24566,8.02831 1.68775,13.00367c-0.60829,0.85116 -1.51982,2.38041 -2.02493,3.39837c-0.79939,1.61012 -0.91863,2.08392 -0.91758,3.64295c0.00105,1.85516 0.49643,3.39629 1.58062,4.91927c0.28138,0.39535 0.51196,0.76701 0.51196,0.82624c0,0.05922 -0.62409,0.0229 -1.38663,-0.08054c-3.62766,-0.49222 -6.20324,-3.6445 -6.22088,-7.61356c-0.01342,-2.94848 0.66541,-4.49254 4.26359,-9.7003c1.10999,-1.60636 1.68459,-3.51998 1.50718,-5.01855c-0.14188,-1.19687 -1.16816,-3.58328 -1.6759,-3.89709zM284.80194,134.08592c3.0141,-4.41487 3.45867,-7.27562 1.56351,-10.06804c-0.59645,-0.87904 -0.60014,-0.90894 -0.10608,-0.90894c0.89573,0 3.23915,1.31719 4.16384,2.34045c1.4527,1.60786 1.96466,3.0007 1.95702,5.32205c-0.0079,2.40152 -0.57487,3.8182 -2.7772,6.94375c-1.877,2.66328 -2.44371,4.14423 -2.44371,6.385c-0.00026,1.78251 0.59566,3.52317 1.7367,5.07378c0.41456,0.56355 0.41246,0.56539 -0.68252,0.56276c-1.48796,-0.00316 -3.40103,-0.94232 -4.57709,-2.24683c-1.67538,-1.85857 -2.32184,-4.18542 -1.89911,-6.8363c0.33007,-2.06662 1.0605,-3.63256 3.06464,-6.56767zM242.86617,169.86547c-0.75359,-3.24757 -1.37689,-13.4096 -0.88836,-14.48195l0.28217,-0.61961h65.5132l0.12529,2.39396c0.0687,1.31662 0.17372,2.44239 0.23347,2.50188c0.05949,0.05975 0.81992,-0.11318 1.68985,-0.38377c4.35203,-1.35452 9.49162,0.05185 12.16353,3.32864c3.81481,4.67764 3.55238,11.07302 -0.64198,15.67038c-3.69189,4.04591 -9.63033,6.23588 -17.77269,6.55463l-3.89404,0.15214l-2.00966,1.91833c-3.39998,3.24521 -7.34824,5.70866 -11.38783,7.1045l-1.67617,0.57934l11.7716,0.12556c11.04039,0.11766 11.74238,0.15161 11.30545,0.54723c-0.25664,0.23163 -1.14473,0.75543 -1.97387,1.16368c-4.72028,2.32473 -12.62206,4.16225 -21.98259,5.11221c-3.99985,0.40588 -14.11266,0.41009 -17.71163,0.00737c-11.15515,-1.24791 -21.18215,-3.85745 -23.69876,-6.16718l-0.58566,-0.53775l23.53084,-0.25111l-1.38189,-0.47485c-5.23144,-1.7983 -11.43705,-6.36986 -14.93758,-11.00432c-2.75088,-3.64161 -4.96638,-8.47165 -6.07269,-13.2393zM251.97454,175.78286c-1.98361,-3.48026 -3.42314,-8.90016 -3.42314,-12.88685v-1.85147l2.07283,0.00369c1.63563,0.00263 2.40765,-0.03764 2.81248,0.32797c0.40456,0.36587 0.4422,1.13815 0.60935,2.76615c1.06182,10.33839 5.98793,18.15726 13.92761,22.10762c3.6174,1.79961 6.83812,2.64112 10.34838,2.70456l1.50745,0.02711l-1.00497,0.24584c-0.55249,0.13477 -2.58769,0.19136 -4.52207,0.12529c-2.75825,-0.09449 -4.02643,-0.26243 -5.87685,-0.77833c-7.0945,-1.97755 -12.83,-6.43724 -16.45108,-12.79157zM307.82608,168.61098c0.48722,-0.91073 2.61059,-2.55084 3.76111,-2.90513c0.63436,-0.1953 1.37952,-0.36271 1.6559,-0.3714c1.69091,-0.05396 3.91062,1.36794 4.55971,2.92092c1.18105,2.82721 -0.85651,6.16797 -4.79082,7.8544c-1.69644,0.72753 -4.7816,1.47639 -6.8855,1.67196l-1.80277,0.16741l0.8594,-1.8599c0.47274,-1.0226 1.20264,-3.01594 1.62247,-4.4289c0.41983,-1.41295 0.87915,-2.78536 1.02049,-3.04937zM219.25832,203.96474c-0.1319,-0.21347 1.03608,-2.30104 2.49296,-4.45548l0.74667,-1.1042l2.78916,0.15399c7.87804,0.43483 19.17864,3.64161 27.71767,7.8652c8.04655,3.98011 15.31688,9.98067 18.78213,15.50192c0.45089,0.71885 0.34192,0.6691 -1.13052,-0.51591c-3.38103,-2.72009 -8.5106,-5.93002 -13.31195,-8.32925c-10.89351,-5.4436 -22.03287,-8.32266 -33.86143,-8.75145c-2.25001,-0.08133 -4.15107,-0.24584 -4.22469,-0.36482zM320.0262,199.13444c1.38189,-0.21531 2.79511,-0.43773 3.14045,-0.49432c0.3456,-0.05686 1.53193,-0.08818 2.63665,-0.06976l2.00861,0.03317l1.44585,2.37922c0.79518,1.30846 1.44585,2.56347 1.44585,2.78826c0,0.35614 -0.56091,0.42931 -4.33387,0.56486c-11.42257,0.41009 -22.66669,3.30548 -33.72735,8.68459c-5.59337,2.72035 -8.37531,4.49496 -14.42088,9.19865c-1.33346,1.03734 1.59615,-2.75114 4.24596,-5.49124c4.94664,-5.1151 11.39125,-9.26209 19.56099,-12.58731c5.27593,-2.14733 12.44544,-4.14146 17.99775,-5.00613zM212.91175,215.4289c-0.22887,-0.22873 3.22704,-6.04452 3.77499,-6.35248c0.79013,-0.44404 11.52642,-0.22163 15.53479,0.32218c16.56992,2.24761 30.25906,8.13657 40.75854,17.53422l1.94386,1.7396l1.82462,-1.67722c5.7184,-5.25618 13.18087,-9.66929 21.80018,-12.89212c9.35526,-3.4979 17.40524,-4.99823 28.18873,-5.25382c5.17459,-0.1224 6.03715,-0.0887 6.56517,0.25743c0.62856,0.41167 3.68162,5.50966 3.68162,6.14718c0,0.29849 -0.3535,0.32771 -2.07257,0.17109c-3.01173,-0.27401 -12.44439,-0.2011 -15.5135,0.12003c-9.15443,0.95784 -17.69294,3.02805 -26.10563,6.32906c-2.19181,0.85993 -9.35685,4.2836 -9.23024,4.4102c0.04633,0.04659 1.77593,-0.48037 3.84324,-1.17105c12.82421,-4.28307 27.95235,-6.39644 41.41619,-5.78552c4.85426,0.22005 8.69406,0.57092 9.68218,0.88467c0.41957,0.13319 2.47925,3.42367 3.1544,5.03956c0.47247,1.13078 0.1853,2.03598 -0.70621,2.2255c-0.31534,0.06686 -5.43491,0.17346 -11.37651,0.23663c-13.08243,0.13898 -19.66022,0.68937 -29.14263,2.43818c-3.49158,0.64383 -10.90351,2.49951 -13.6665,3.42156l-2.10995,0.70437l-0.40404,1.633c-0.22242,0.8981 -0.70463,2.14548 -1.07209,2.77194c-0.92389,1.57562 -2.96278,3.41446 -4.67526,4.21726c-1.27239,0.59619 -1.73829,0.67331 -4.07461,0.67331c-2.34,0 -2.80116,-0.07633 -4.08303,-0.67726c-2.85854,-1.33977 -5.26961,-4.3244 -5.84579,-7.23663l-0.27322,-1.38163l-2.42686,-0.81992c-5.44096,-1.83778 -13.82601,-3.64609 -21.28691,-4.59051c-7.23329,-0.91573 -9.39309,-1.03629 -20.97781,-1.16948c-6.35612,-0.07343 -11.75428,-0.23768 -11.99622,-0.36561c-0.74439,-0.39324 -0.51552,-1.64274 0.73586,-4.01643c1.47297,-2.79379 1.79328,-3.13281 3.13861,-3.32417c6.88871,-0.98049 20.04386,-0.92995 28.22016,0.10792c6.94394,0.88151 15.17737,2.78536 22.0455,5.09773c2.17628,0.7328 3.95669,1.30424 3.95669,1.27003c0,-0.16767 -4.72212,-2.54584 -7.19636,-3.6245c-12.83895,-5.596 -27.27455,-8.23133 -41.29895,-7.53933c-2.54497,0.12582 -4.67363,0.18188 -4.73041,0.12503z" data-paper-data="{&quot;isPathIcon&quot;:true}"></path></g></g></g></svg>